<?xml version="1.0" encoding="UTF-8"?>
<svg xmlns="http://www.w3.org/2000/svg" xmlns:xlink="http://www.w3.org/1999/xlink" width="150px" height="132px" viewBox="0 0 151 132" version="1.1">
<g id="surface1">
<path style=" stroke:none;fill-rule:nonzero;fill:rgb(29.019609%,72.941178%,92.156863%);fill-opacity:1;" d="M 82.078125 128.03125 L 148.703125 11.890625 C 150.113281 9.4375 150.117188 6.414062 148.707031 3.960938 C 147.300781 1.507812 144.695312 -0.00390625 141.878906 0 L 8.488281 0 C 5.679688 0.0117188 3.089844 1.53125 1.691406 3.980469 C 0.292969 6.429688 0.300781 9.445312 1.707031 11.890625 L 68.375 128.03125 C 69.773438 130.511719 72.390625 132.046875 75.226562 132.046875 C 78.0625 132.046875 80.679688 130.511719 82.078125 128.03125 Z M 82.078125 128.03125 "/>
<path style=" stroke:none;fill-rule:nonzero;fill:rgb(97.647059%,98.431373%,98.823529%);fill-opacity:1;" d="M 35.265625 49.964844 C 35.050781 50.316406 34.695312 50.554688 34.289062 50.621094 C 33.882812 50.6875 33.472656 50.570312 33.160156 50.304688 C 27.289062 45.078125 21.503906 43.566406 15.945312 45.8125 C 13.652344 46.785156 11.585938 48.230469 9.878906 50.050781 C 9.613281 50.328125 9.246094 50.488281 8.859375 50.488281 C 8.476562 50.488281 8.109375 50.328125 7.84375 50.050781 C 7.15625 49.234375 7.15625 48.039062 7.84375 47.222656 C 9.847656 45.09375 12.269531 43.402344 14.960938 42.269531 C 19.539062 40.417969 26.628906 39.882812 34.96875 47.308594 C 35.675781 48.03125 35.800781 49.148438 35.265625 50.007812 Z M 35.265625 49.964844 "/>
<path style=" stroke:none;fill-rule:nonzero;fill:rgb(97.647059%,98.431373%,98.823529%);fill-opacity:1;" d="M 78.863281 49.964844 C 78.648438 50.320312 78.289062 50.5625 77.882812 50.628906 C 77.472656 50.695312 77.054688 50.574219 76.742188 50.304688 C 70.84375 45.078125 65.101562 43.566406 59.613281 45.8125 C 57.320312 46.78125 55.253906 48.226562 53.546875 50.050781 C 53.28125 50.328125 52.914062 50.488281 52.527344 50.488281 C 52.144531 50.488281 51.777344 50.328125 51.511719 50.050781 C 50.824219 49.234375 50.824219 48.039062 51.511719 47.222656 C 53.515625 45.09375 55.9375 43.402344 58.628906 42.269531 C 63.191406 40.417969 70.296875 39.882812 78.636719 47.308594 C 79.34375 48.03125 79.46875 49.148438 78.933594 50.007812 Z M 78.863281 49.964844 "/>
<path style=" stroke:none;fill-rule:nonzero;fill:rgb(97.647059%,98.431373%,98.823529%);fill-opacity:1;" d="M 22.109375 80.863281 C 23.085938 79.632812 24.855469 79.402344 26.109375 80.339844 C 37.1875 88.445312 48.113281 90.792969 58.617188 87.304688 C 62.820312 85.886719 66.714844 83.664062 70.074219 80.75 C 71.175781 79.78125 72.820312 79.78125 73.921875 80.75 C 74.554688 81.304688 74.917969 82.109375 74.917969 82.953125 C 74.917969 83.796875 74.554688 84.601562 73.921875 85.15625 C 69.976562 88.578125 65.410156 91.191406 60.46875 92.851562 C 51.832031 95.679688 38.425781 96.554688 22.671875 85.03125 C 22.035156 84.558594 21.621094 83.847656 21.519531 83.0625 C 21.414062 82.277344 21.632812 81.484375 22.121094 80.863281 Z M 22.109375 80.863281 "/>
</g>
</svg>
