<?xml version="1.0" encoding="UTF-8"?>
<svg xmlns="http://www.w3.org/2000/svg" xmlns:xlink="http://www.w3.org/1999/xlink" width="150px" height="150px" viewBox="0 0 150 150" version="1.1">
<g id="surface1">
<path style=" stroke:none;fill-rule:nonzero;fill:rgb(29.019609%,72.941178%,92.156863%);fill-opacity:1;" d="M 81.535156 145.023438 L 147.71875 13.917969 C 149.121094 11.148438 149.121094 7.738281 147.722656 4.96875 C 146.324219 2.199219 143.738281 0.492188 140.9375 0.496094 L 8.433594 0.496094 C 5.640625 0.511719 3.070312 2.226562 1.679688 4.988281 C 0.292969 7.753906 0.296875 11.160156 1.695312 13.917969 L 67.921875 145.023438 C 69.3125 147.824219 71.910156 149.554688 74.726562 149.554688 C 77.546875 149.554688 80.144531 147.824219 81.535156 145.023438 Z M 81.535156 145.023438 "/>
<path style=" stroke:none;fill-rule:nonzero;fill:rgb(97.647059%,98.431373%,98.823529%);fill-opacity:1;" d="M 35.03125 56.898438 C 34.820312 57.296875 34.464844 57.566406 34.0625 57.640625 C 33.660156 57.714844 33.25 57.582031 32.941406 57.28125 C 27.109375 51.382812 21.363281 49.675781 15.839844 52.210938 C 13.5625 53.308594 11.507812 54.941406 9.8125 56.996094 C 9.550781 57.308594 9.183594 57.488281 8.800781 57.488281 C 8.421875 57.488281 8.054688 57.308594 7.792969 56.996094 C 7.109375 56.074219 7.109375 54.726562 7.792969 53.804688 C 9.78125 51.398438 12.1875 49.492188 14.863281 48.210938 C 19.410156 46.121094 26.453125 45.519531 34.738281 53.902344 C 35.441406 54.714844 35.5625 55.976562 35.03125 56.949219 Z M 35.03125 56.898438 "/>
<path style=" stroke:none;fill-rule:nonzero;fill:rgb(97.647059%,98.431373%,98.823529%);fill-opacity:1;" d="M 78.339844 56.898438 C 78.128906 57.300781 77.769531 57.574219 77.367188 57.648438 C 76.960938 57.722656 76.542969 57.585938 76.234375 57.28125 C 70.375 51.382812 64.671875 49.675781 59.21875 52.210938 C 56.941406 53.304688 54.886719 54.9375 53.191406 56.996094 C 52.929688 57.308594 52.5625 57.488281 52.179688 57.488281 C 51.800781 57.488281 51.433594 57.308594 51.171875 56.996094 C 50.488281 56.074219 50.488281 54.726562 51.171875 53.804688 C 53.160156 51.398438 55.566406 49.492188 58.242188 48.210938 C 62.773438 46.121094 69.832031 45.519531 78.117188 53.902344 C 78.816406 54.714844 78.941406 55.976562 78.410156 56.949219 Z M 78.339844 56.898438 "/>
<path style=" stroke:none;fill-rule:nonzero;fill:rgb(97.647059%,98.431373%,98.823529%);fill-opacity:1;" d="M 21.964844 91.777344 C 22.933594 90.390625 24.691406 90.128906 25.9375 91.1875 C 36.941406 100.335938 47.792969 102.988281 58.230469 99.050781 C 62.402344 97.449219 66.273438 94.941406 69.609375 91.648438 C 70.703125 90.558594 72.339844 90.558594 73.433594 91.648438 C 74.0625 92.277344 74.421875 93.183594 74.421875 94.136719 C 74.421875 95.089844 74.0625 96 73.433594 96.625 C 69.511719 100.488281 64.976562 103.4375 60.066406 105.3125 C 51.488281 108.503906 38.171875 109.492188 22.523438 96.484375 C 21.890625 95.949219 21.476562 95.148438 21.378906 94.261719 C 21.273438 93.375 21.488281 92.480469 21.972656 91.777344 Z M 21.964844 91.777344 "/>
</g>
</svg>
